<svg width="60" height="60" viewBox="0 0 60 60" fill="none" xmlns="http://www.w3.org/2000/svg">
<g id="Group 21309">
<circle id="Ellipse 102" cx="30" cy="30" r="30" fill="#009900"/>
<g id="Group 595">
<g id="Vector">
<path fill-rule="evenodd" clip-rule="evenodd" d="M17.3311 38.1366L15 46.648L23.7102 44.364C26.1103 45.6728 28.8122 46.3626 31.5619 46.3637H31.5689C40.6244 46.3637 47.996 38.9943 48 29.9382C48.0015 25.5489 46.2936 21.4221 43.1919 18.3173C40.0893 15.2126 35.9641 13.5021 31.5689 13.5C22.5119 13.5 15.1416 20.8682 15.1379 29.9249C15.1369 32.8198 15.8934 35.6458 17.3311 38.1366ZM17.9121 29.9258C17.9149 22.3985 24.0411 16.2746 31.5742 16.2746C35.2221 16.2761 38.6507 17.6978 41.2292 20.2782C43.8077 22.8586 45.2268 26.2889 45.2254 29.9369C45.2224 37.4648 39.0962 43.5894 31.5689 43.5894H31.5637C29.1126 43.5881 26.7091 42.9302 24.6128 41.686L24.1137 41.3903L18.9449 42.7456L20.3248 37.7079L19.9999 37.1915C18.6329 35.0176 17.911 32.5052 17.9121 29.9258Z" fill="white"/>
<path fill-rule="evenodd" clip-rule="evenodd" d="M27.4625 23.058C27.1548 22.3745 26.831 22.3607 26.5387 22.3487C26.2992 22.3385 26.0254 22.3392 25.7518 22.3392C25.4779 22.3392 25.0332 22.4419 24.6572 22.8528C24.2808 23.2636 23.22 24.2567 23.22 26.2767C23.22 28.2967 24.6913 30.2483 24.8963 30.5225C25.1015 30.7964 27.7364 35.074 31.9096 36.7195C35.3775 38.0871 36.0832 37.815 36.8362 37.7467C37.5889 37.6784 39.2652 36.7536 39.6071 35.795C39.9493 34.8364 39.9493 34.0151 39.8468 33.8433C39.744 33.6719 39.4704 33.5695 39.0596 33.3642C38.6491 33.1589 36.6306 32.1656 36.2543 32.0286C35.8779 31.8917 35.6043 31.8233 35.3304 32.2342C35.0568 32.645 34.2706 33.5695 34.0308 33.8433C33.7914 34.1175 33.552 34.1517 33.1412 33.9464C32.7307 33.7406 31.4083 33.3076 29.8398 31.9089C28.6193 30.8207 27.7955 29.4768 27.5557 29.066C27.3163 28.6552 27.5302 28.433 27.7361 28.2283C27.9204 28.0443 28.1466 27.7489 28.3522 27.5092C28.5568 27.2694 28.6254 27.0983 28.7621 26.8248C28.8990 26.5506 28.8307 26.3108 28.7279 26.1056C28.6254 25.9003 27.8275 23.8698 27.4625 23.058Z" fill="white"/>
</g>
</g>
</g>
</svg>
